#!OML:ASF E:\pregnant2\Project 1\Capture day 1\Session 1\pregnant2.ASF
:FULLY-SPECIFIED
:DEGREES
1408
root 6.98359 16.6366 31.145 24.2365 -5.63649 4.49653
lowerback -11.0852 -1.30005 -5.69697
upperback -14.5005 -1.53798 -0.0447516
thorax -9.25834 -0.236121 3.08162
lowerneck -9.85388 5.25616 5.58574
upperneck 34.4323 7.08981 -1.82714
head 13.5358 3.60745 -0.679116
rclavicle -5.31749e-015 -2.92213e-014
rhumerus -49.5524 -8.05564 -72.3429
rradius 23.8084
rwrist 19.2577
rhand -13.5978 -10.3681
rfingers 7.12502
rthumb 12.5169 -39.9732
lclavicle -5.31749e-015 -2.92213e-014
lhumerus -37.8048 -4.9418 88.1552
lradius 35.1961
lwrist -2.44146
lhand -13.4377 25.8002
lfingers 7.12502
lthumb 12.6712 55.3958
rfemur -57.1628 -0.352139 17.0538
rtibia 66.7722
rfoot -10.8894 -9.01934
rtoes -8.44885
lfemur -39.8949 -9.96716 -26.6567
ltibia 34.6008
lfoot -13.827 13.6593
ltoes -15.9636
1409
root 6.97826 16.6268 31.2539 24.335 -5.5709 4.43874
lowerback -11.1512 -1.26696 -5.63376
upperback -14.5359 -1.49223 -0.0405919
thorax -9.26692 -0.217872 3.05147
lowerneck -9.82816 5.4876 5.7853
upperneck 34.0216 7.32384 -1.67234
head 13.3653 3.75925 -0.620577
rclavicle -8.64713e-015 -7.7526e-015
rhumerus -50.2614 -8.70029 -71.2237
rradius 23.1975
rwrist 20.0653
rhand -13.5729 -10.4488
rfingers 7.12502
rthumb 12.5409 -40.0524
lclavicle -8.64713e-015 -7.7526e-015
lhumerus -37.251 -5.45717 88.3508
lradius 35.5364
lwrist -2.15786
lhand -13.4663 26.0947
lfingers 7.12502
lthumb 12.6437 55.692
rfemur -57.6366 0.0370285 16.8969
rtibia 65.0288
rfoot -11.1689 -9.25371
rtoes -7.99329
lfemur -39.6707 -9.99695 -26.6455
ltibia 34.8088
lfoot -14.275 13.8182
ltoes -16.0928
1410
root 6.97335 16.6225 31.3635 24.4113 -5.51807 4.38138
lowerback -11.1689 -1.21243 -5.55236
upperback -14.5649 -1.42279 -0.056113
thorax -9.29765 -0.190161 2.99166
lowerneck -9.64378 5.6244 6.11982
upperneck 33.4147 7.46891 -1.76011
head 13.0923 3.85942 -0.700908
rclavicle 2.98177e-015 9.14409e-015
rhumerus -50.9568 -9.26619 -70.2002
rradius 22.7124
rwrist 20.8189
rhand -13.2826 -10.7923
rfingers 7.12502
rthumb 12.8208 -40.3786
lclavicle 2.98177e-015 9.14409e-015
lhumerus -36.6705 -6.00908 88.5427
lradius 35.7939
lwrist -1.85302
lhand -13.5054 26.2127
lfingers 7.12502
lthumb 12.606 55.8124
rfemur -58.0087 0.431299 16.6919
rtibia 63.1101
rfoot -11.593 -9.59492
rtoes -8.48661
lfemur -39.3731 -10.0377 -26.6368
ltibia 34.9271
lfoot -14.6569 13.9766
ltoes -16.1624
1411
root 6.96649 16.6176 31.477 24.414 -5.47697 4.31442
lowerback -11.2207 -1.16208 -5.47575
upperback -14.5648 -1.3545 -0.0569306
thorax -9.27426 -0.163756 2.94945
lowerneck -9.41152 5.7477 6.34297
upperneck 32.836 7.59915 -1.77071
head 12.8158 3.94867 -0.736191
rclavicle -1.21259e-014 1.15295e-014
rhumerus -51.698 -9.69724 -69.2317
rradius 22.3115
rwrist 21.6202
rhand -13.2416 -10.7849
rfingers 7.12502
rthumb 12.8603 -40.3687
lclavicle -1.21259e-014 1.15295e-014
lhumerus -36.1416 -6.41997 88.6968
lradius 36.0264
lwrist -1.64704
lhand -13.7355 26.0671
lfingers 7.12502
lthumb 12.3841 55.6803
rfemur -58.1803 0.911465 16.4079
rtibia 61.0163
rfoot -11.8247 -10.1235
rtoes -7.79702
lfemur -38.8978 -10.1002 -26.6289
ltibia 34.931
lfoot -14.9911 14.2315
ltoes -16.5814
1412
root 6.95731 16.6166 31.585 24.5835 -5.3712 4.31437
lowerback -11.2827 -1.19462 -5.51031
upperback -14.628 -1.39241 -0.0296402
thorax -9.31018 -0.175263 2.99623
lowerneck -9.43839 5.92604 6.52282
upperneck 32.4692 7.78825 -1.70901
head 12.6847 4.06311 -0.717512
rclavicle -8.94531e-016 -1.98785e-015
rhumerus -52.358 -9.92031 -68.4132
rradius 21.9354
rwrist 22.3075
rhand -13.082 -10.8178
rfingers 7.12502
rthumb 13.0142 -40.3919
lclavicle -8.94531e-016 -1.98785e-015
lhumerus -35.6023 -6.7534 88.8002
lradius 36.2766
lwrist -1.28704
lhand -13.7473 26.1471
lfingers 7.12502
lthumb 12.3728 55.7609
rfemur -58.4907 1.33976 16.0166
rtibia 58.767
rfoot -12.0646 -10.6798
rtoes -6.52248
lfemur -38.6193 -10.2511 -26.586
ltibia 34.8091
lfoot -15.2632 14.319
ltoes -16.4444
1413
root 6.94946 16.6219 31.7026 24.5787 -5.32394 4.29262
lowerback -11.3616 -1.15867 -5.47607
upperback -14.6099 -1.33922 -0.0366841
thorax -9.24942 -0.154016 2.96982
lowerneck -9.36676 6.02324 6.65503
upperneck 32.0242 7.87906 -1.66823
head 12.4948 4.12665 -0.717905
rclavicle 1.2424e-015 -1.25234e-014
rhumerus -53.0277 -10.2101 -67.5671
rradius 21.6152
rwrist 22.9909
rhand -12.9628 -10.7487
rfingers 7.12502
rthumb 13.129 -40.3154
lclavicle 1.2424e-015 -1.25234e-014
lhumerus -35.0737 -7.09447 88.927
lradius 36.5135
lwrist -1.00738
lhand -13.8639 26.1464
lfingers 7.12502
lthumb 12.2604 55.767
rfemur -58.4678 1.84889 15.5432
rtibia 56.3399
rfoot -12.279 -11.2581
rtoes -5.84587
lfemur -38.0025 -10.3954 -26.5981
ltibia 34.5602
lfoot -15.4466 14.5897
ltoes -16.8211
1414
root 6.94029 16.6319 31.821 24.5745 -5.31747 4.30125
lowerback -11.4187 -1.13555 -5.50825
upperback -14.6098 -1.30225 -0.0380952
thorax -9.22101 -0.132849 2.98654
lowerneck -9.44077 6.17313 6.75807
upperneck 31.7637 8.01899 -1.52739
head 12.4098 4.21872 -0.661578
rclavicle 3.37934e-015 -1.41137e-014
rhumerus -53.709 -10.2746 -66.912
rradius 21.4247
rwrist 23.4098
rhand -12.839 -10.753
rfingers 7.12502
rthumb 13.2484 -40.312
lclavicle 3.37934e-015 -1.41137e-014
lhumerus -34.6075 -7.44186 89.0525
lradius 36.728
lwrist -0.694042
lhand -14.096 26.0936
lfingers 7.12502
lthumb 12.0365 55.7274
rfemur -58.3904 2.44417 14.932
rtibia 53.7662
rfoot -12.3458 -11.9257
rtoes -5.44784
lfemur -37.3618 -10.5653 -26.6114
ltibia 34.1969
lfoot -15.6124 14.7936
ltoes -16.7075
1415
root 6.92756 16.6433 31.9359 24.6731 -5.23605 4.31625
lowerback -11.5045 -1.10208 -5.52675
upperback -14.7016 -1.25459 -0.0668512
thorax -9.2866 -0.104853 2.96682
lowerneck -9.17249 6.1825 6.85592
upperneck 31.3033 8.01117 -1.51074
head 12.1702 4.23334 -0.687749
rclavicle -5.91384e-015 -4.37326e-015
rhumerus -54.5439 -10.4128 -66.1936
rradius 21.3049
rwrist 23.8048
rhand -12.6602 -10.6542
rfingers 7.12502
rthumb 13.4207 -40.2019
lclavicle -5.91384e-015 -4.37326e-015
lhumerus -34.2967 -7.88014 89.2187
lradius 36.9604
lwrist -0.425966
lhand -14.1135 26.1098
lfingers 7.12502
lthumb 12.0197 55.7446
rfemur -58.3525 3.07176 14.2281
rtibia 51.0543
rfoot -12.3293 -12.6445
rtoes -4.75848
lfemur -36.7882 -10.7109 -26.6062
ltibia 33.6962
lfoot -15.6593 14.9151
ltoes -16.8631
1416
root 6.91325 16.6562 32.0487 24.8176 -5.11413 4.3474
lowerback -11.6078 -1.19518 -5.64311
upperback -14.7414 -1.36294 0.0100445
thorax -9.26502 -0.142618 3.10909
lowerneck -9.27509 6.32034 6.957
upperneck 31.0312 8.17337 -1.50615
head 12.0955 4.31685 -0.679302
rclavicle 1.59028e-015 -1.43125e-014
rhumerus -55.1174 -10.1331 -65.8509
rradius 21.4189
rwrist 23.6284
rhand -12.2228 -10.9993
rfingers 7.12502
rthumb 13.8423 -40.5187
lclavicle 1.59028e-015 -1.43125e-014
lhumerus -33.8794 -7.97741 89.2552
lradius 37.2252
lwrist -0.259367
lhand -14.0923 26.047
lfingers 7.12502
lthumb 12.0401 55.6807
rfemur -58.2926 3.74553 13.4049
rtibia 48.248
rfoot -12.2854 -13.3953
rtoes -3.85116
lfemur -36.207 -10.8386 -26.606
ltibia 33.1034
lfoot -15.6813 14.9607
ltoes -17.0804
1417
root 6.89918 16.6763 32.1655 24.9034 -5.00809 4.38807
lowerback -11.7047 -1.2112 -5.70847
upperback -14.8089 -1.37513 0.0206513
thorax -9.28983 -0.139128 3.15531
lowerneck -8.79926 6.2608 7.25635
upperneck 30.273 8.1609 -1.92368
head 11.7298 4.30081 -0.911505
rclavicle -3.27995e-015 -3.37934e-015
rhumerus -55.8057 -10.116 -65.2812
rradius 21.3431
rwrist 23.811
rhand -12.1613 -10.7014
rfingers 7.12502
rthumb 13.9015 -40.2167
lclavicle -3.27995e-015 -3.37934e-015
lhumerus -33.5786 -8.2537 89.3886
lradius 37.4353
lwrist -0.135401
lhand -14.1609 26.0693
lfingers 7.12502
lthumb 11.974 55.7068
rfemur -58.114 4.49504 12.4475
rtibia 45.3815
rfoot -12.2822 -14.1723
rtoes -3.14844
lfemur -35.4722 -11.0026 -26.6111
ltibia 32.3711
lfoot -15.7092 14.9981
ltoes -16.9984
